<?xml version="1.0" encoding="UTF-8" standalone="no"?>
<!-- Created with Inkscape (http://www.inkscape.org/) -->

<svg
   xmlns:dc="http://purl.org/dc/elements/1.1/"
   xmlns:cc="http://creativecommons.org/ns#"
   xmlns:rdf="http://www.w3.org/1999/02/22-rdf-syntax-ns#"
   xmlns:svg="http://www.w3.org/2000/svg"
   xmlns="http://www.w3.org/2000/svg"
   xmlns:sodipodi="http://sodipodi.sourceforge.net/DTD/sodipodi-0.dtd"
   xmlns:inkscape="http://www.inkscape.org/namespaces/inkscape"
   id="svg2"
   version="1.1"
   inkscape:version="0.92.1 r15371"
   xml:space="preserve"
   width="128"
   height="128"
   viewBox="0 0 128 128.00001"
   sodipodi:docname="pext.svg"><title
     id="title3569">Pext Logo</title><metadata
     id="metadata8"><rdf:RDF><cc:Work
         rdf:about=""><dc:format>image/svg+xml</dc:format><dc:type
           rdf:resource="http://purl.org/dc/dcmitype/StillImage" /><dc:title>Pext Logo</dc:title><dc:date>2016-09-10</dc:date><dc:creator><cc:Agent><dc:title>White Paper Fox</dc:title></cc:Agent></dc:creator><dc:description>The logo for Pext: Python-based extendable tool</dc:description><cc:license
           rdf:resource="http://creativecommons.org/licenses/by-sa/4.0/" /></cc:Work><cc:License
         rdf:about="http://creativecommons.org/licenses/by-sa/4.0/"><cc:permits
           rdf:resource="http://creativecommons.org/ns#Reproduction" /><cc:permits
           rdf:resource="http://creativecommons.org/ns#Distribution" /><cc:requires
           rdf:resource="http://creativecommons.org/ns#Notice" /><cc:requires
           rdf:resource="http://creativecommons.org/ns#Attribution" /><cc:permits
           rdf:resource="http://creativecommons.org/ns#DerivativeWorks" /><cc:requires
           rdf:resource="http://creativecommons.org/ns#ShareAlike" /></cc:License></rdf:RDF></metadata><defs
     id="defs6"><clipPath
       clipPathUnits="userSpaceOnUse"
       id="clipPath16"><path
         d="M 0,169 H 302.985 V 0 H 0 Z"
         id="path18"
         inkscape:connector-curvature="0" /></clipPath></defs><sodipodi:namedview
     pagecolor="#ffffff"
     bordercolor="#666666"
     borderopacity="1"
     objecttolerance="10"
     gridtolerance="10"
     guidetolerance="10"
     inkscape:pageopacity="0"
     inkscape:pageshadow="2"
     inkscape:window-width="1280"
     inkscape:window-height="781"
     id="namedview4"
     showgrid="false"
     inkscape:zoom="2.5905709"
     inkscape:cx="75.659004"
     inkscape:cy="60.41296"
     inkscape:window-x="0"
     inkscape:window-y="0"
     inkscape:window-maximized="0"
     inkscape:current-layer="g10"
     fit-margin-top="0"
     fit-margin-left="0"
     fit-margin-right="0"
     fit-margin-bottom="0" /><g
     id="g10"
     inkscape:groupmode="layer"
     inkscape:label="Leoger_v2-1"
     transform="matrix(1.25,0,0,-1.25,-44.416881,173.21218)"><path
       style="fill:#fffffe;fill-opacity:1;stroke:none;stroke-width:0.80000001px;stroke-linecap:butt;stroke-linejoin:miter;stroke-opacity:1"
       d="m 48.8104,107.369 -2.145024,2.22372 v 2.52638 l 4.421168,5.60541 6.079107,5.21067 6.394905,3.94747 6.394904,2.84218 7.815995,1.34214 7.973893,1.50004 6.947551,-0.079 12.158211,-2.52638 8.44759,-4.57907 5.05276,-3.63168 5.21067,-4.42116 5.68436,-7.5002 3.94747,-7.42125 3.23693,-7.658094 0.94739,-7.815995 v -7.894944 l -2.76323,-6.789651 -2.68428,-4.894866 -2.68428,-3.947472 -5.05277,-4.02642 -1.34432,-1.130828 1.58117,-4.711377 v -2.289534 l -2.05268,-4.500118 -3.39483,-3.236927 -3.00008,-3.868522 -2.21058,-1.026343 -1.005,0.679821 -3.33722,-2.416709 h -1.97374 l -4.50011,0.789495 -6.079111,2.052685 -3.473775,0.157899 -3.631675,-0.315798 -12.000314,-2.76323 -7.10545,-0.07895 -3.710623,1.578989 -5.68436,2.368483 -6.079107,4.105371 -1.536515,1.640765 -7.147923,5.701533 -5.368562,7.184399 -3.236927,7.500197 -1.736888,7.815994 0.473697,10.737124 3.552725,11.684517 4.736966,6.394906 z"
       id="path6899"
       inkscape:connector-curvature="0" /><g
       id="g12"
       transform="translate(-1.1649512e-6,2.8696448)"><g
         id="g14"
         clip-path="url(#clipPath16)"><g
           id="g52"
           transform="translate(86.6968,131.2461)"><path
             d="M 0,0 C -0.434,0.736 -1.529,0.004 -1.758,-0.549 -2.096,-1.361 -2.879,-1.217 -3.586,-1.049 -4.338,-0.867 -8.24,0.309 -6.605,-2.074 -4.725,-4.814 2.371,-4.012 0,0 -0.162,0.275 0.104,-0.17 0,0"
             style="fill:#000000;fill-opacity:1;fill-rule:nonzero;stroke:none"
             id="path54"
             inkscape:connector-curvature="0" /></g><g
           id="g56"
           transform="translate(136.5444,78.998)"><path
             d="m -0.03497233,0 c -0.271,-1.461 -0.99999997,-2.938 -1.51399997,-4.336 -1.045,1.305 -1.664,1.41 -3.42,1.449 -1.222,0.028 -2.687,-1.558 -2.097,-2.8 0.441,-0.936 0.248,-2.487 0.806,-3.262 0.811,-1.127 0.02,-0.43 -0.076,-1.686 -0.043,-0.551 0.276,-0.828 0.699,-1.072 l -0.943,-1.506 c -0.865,1.586 -2.162,2.012 -3.8999997,1.822 -2.299,-0.248 -3.049,-1.545 -3.557,-3.629 -0.445,-1.82 1.383,-3.736 2.727,-1.681 0.877,1.344 1.164,3.271 3.1709997,1.765 -1.753,-2.044 -4.0109997,-3.546 -6.1989997,-5.084 -1,1.358 -2.388,4.122 -4.318,4.206 0.891,1.73 1.424,1.746 2.992,2.71 1.176,0.723 2.045,1.756 3.057,2.674 1.111,1.008 1.105,2.178 2.511,2.795 0.9829997,0.428 1.4569997,2.426 1.6329997,3.379 0.137,0.74 0.584,3.17 -0.215,3.709 -0.697,0.471 -0.339,2.766 -0.683,3.592 -1.1289997,2.713 -3.6229997,5.158 -4.3849997,7.984 1.465,-0.146 3.082,-1.625 4.5649997,-0.927 1.207,0.568 2.31,2.351 2.462,3.634 0.137,1.159 -0.23,2.643 -1.166,3.436 -0.796,0.676 -3.3919997,2.355 -4.3239997,1.226 -1.084,-1.318 0.94,-2.068 1.654,-2.548 1.1019997,-0.743 0.219,-1.766 -0.376,-2.454 -1.081,-1.244 -3.711,5.647 -5.127,1.518 -1.137,1.9 -1.713,3.893 -2.241,6.039 1.364,-1.703 5.395,-1.316 4.926,1.43 -0.258,1.492 -1.183,0.722 -2.029,0.5 -1.176,-0.309 -0.24,0.894 0.471,1.107 1.511,0.455 1.656,-0.543 2.658,1.115 0.451,0.749 -0.7,1.594 -1.323,1.7 -1.837,0.312 -5.386,-0.389 -6.099,-2.352 -0.58,1.086 -2.563,3.627 0.029,3.459 1.729,-0.111 2.17,2.977 0.395,3.484 -0.981,0.284 -2.703,0.965 -3.711,0.563 -1.94,-0.775 0.277,-2.211 0.314,-3.389 -1.189,0.94 -2.658,2.379 -3.679,3.512 0.417,0.705 2.003,2.479 1.019,3.467 -0.853,0.857 -2.006,2.267 -3.084,0.734 -0.553,-0.785 -0.258,-1.685 -0.74,-2.535 -1.033,0.451 -2.088,0.885 -3.028,1.52 0.137,0.298 2.188,0.55 2.643,0.802 1.906,1.067 -1.322,1.723 -1.643,1.823 -1.496,0.461 -2.168,0.199 -2.724,-1.237 -0.41,-1.052 -2.811,0.301 -3.281,0.84 0.927,0.652 2.707,0.275 3.22,1.676 0.371,1.004 0.16,3.486 -1.049,4.027 -1.494,0.668 -2.285,0.397 -3.722,0.606 -0.699,0.101 -3.914,0.113 -3.313,-1.325 0.405,-0.966 1.746,-1.699 2.85,-1.74 0.49,-0.017 2.791,0.403 2.947,-0.271 0.352,-1.52 -2.39,0.371 -2.967,-0.094 -0.558,-0.449 -0.699,-0.67 -0.859,-1.389 -0.393,-0.103 -2.033,1.028 -2.41,1.233 -0.527,0.287 -1.447,0.658 -1.813,1.166 -0.486,0.679 -0.033,1.176 -0.947,1.681 -0.398,0.221 -1.25,0.631 -1.723,0.383 -1.084,-0.574 -0.41,-0.931 -2.058,-0.181 -0.526,0.238 -0.776,1.595 -1.014,2.062 -0.435,0.863 -1.107,1.543 -1.754,2.242 -0.049,-0.025 -0.918,0.446 -0.988,0.477 -0.414,0.191 -0.805,-0.018 -1.258,-0.117 -3.349,-0.733 -4.603,-3.686 -7.512,-5.006 -3.294,-1.5 -6.482,-3.25 -9.709,-4.897 0.875,1.969 1.174,1.83 3.125,2.295 1.543,0.369 -0.334,3.059 -1.671,2.811 -2.252,-0.422 -6.817,-4.406 -2.944,-5.836 -1.75,-1.219 -3.707,-2.07 -5.527,-3.17 -1.367,-0.824 -2.729,-1.656 -4.104,-2.469 -0.529,-0.312 -2.748,-2.084 -3.332,-1.859 -0.83,0.322 -2.029,-0.115 -3.037,0.246 -1.015,0.365 -1.01,2.408 -0.51,3.125 1.372,1.965 2.497,3.826 4.344,5.48 4.104,3.67 8.172,7.7 13.655,9.286 0.974,0.281 1.693,1.08 2.664,1.421 1.388,0.489 2.711,0.924 4.164,1.19 3.029,0.555 6.023,1.277 9.041,1.889 9.463,1.916 20.49,-0.102 28.865,-4.719 4.502,-2.483 8.781,-5.524 12.357,-9.219 0.897,-0.926 5.2289997,-4.875 4.055,-5.961 -0.559,-0.518 -1.055,-2.475 -1.865,-2.377 -1.285,0.154 -1.006,1.531 -1.123,2.373 2.066,-0.51 2.107,1.66 1.244,2.936 -0.404,0.593 -1.434,0.648 -2.053,0.597 -1.168,-0.095 -0.76,-1.81 -0.732,-2.527 -2.602,2.471 -1.918,-2.494 -0.94,-3.812 2.315,-3.116 5.6289997,-2.862 7.6369997,0.32 2.131,-2.045 3.139,-5.174 4.375,-7.842 0.627,-1.352 -2.342,-1.383 -2.982,-0.154 -0.497,0.951 2.267,0.955 1.039,2.851 -0.649,1 -1.789,1.576 -2.967,1.082 -1.7009997,-0.713 -1.145,-2.847 -0.697,-4.138 0.533,-1.537 1.75,-2.944 3.136,-3.78 1.26,-0.757 2.785,0.45 3.826,1.08 0.776,-2.021 1.66999997,-3.91 2.05699997,-6.058 0.199,-1.102 0.375,-2.254 0.219,-3.363 -0.533,-0.092 -1.69399997,-1.112 -1.96699997,-0.668 -1.008,1.648 -2.305,2.937 -2.721,0.283 -0.125,-0.805 1.28,-2.322 1.868,-2.746 1.152,-0.828 2.10499997,-0.233 2.81999997,0.64 0.394,-0.511 0.262,-2.373 0.285,-2.965 0.059,-1.433 -0.115,-2.863 -0.375,-4.271 -0.098,-0.523 0.26,1.41 0,0 M -4.2809723,-9.473 c -0.279,0.096 -0.557,0.194 -0.836,0.287 0.246,0.399 1.008,2.975 1.162,2.916 2.041,-0.792 0.357,-1.828 -0.326,-3.203 -0.279,0.096 0.437,0.877 0,0 m 5.58,13.266 c -0.221,0.941 0.059,2.242 -0.018,3.225 -0.086,1.146 -0.40200003,2.304 -0.33600003,3.457 0.15500003,2.808 -0.826,6.447 -2.14199997,8.929 -1.416,2.668 -2.383,5.506 -3.846,8.168 -1.549,2.824 -3.396,5.369 -5.1829997,8.045 -2.737,4.104 -7.424,7.479 -11.43,10.246 -4.731,3.27 -9.951,5.811 -15.615,6.86 -5.149,0.951 -10.133,1.197 -15.403,1.084 -2.236,-0.047 -4.664,-1.012 -6.886,-1.426 -2.979,-0.553 -6.053,-0.861 -8.871,-2.037 -5.282,-2.203 -10.752,-4.756 -14.932,-8.801 -2.897,-2.799 -11.395,-9.998 -4.406,-13.172 -4.825,-4.004 -8.461,-7.547 -10.444,-13.633 -1.979998,-6.078 -3.475998,-12.732 -2.553998,-19.164 0.858998,-6.017 3.116998,-12.695 6.551998,-17.744 1.617,-2.371 3.565,-4.439 5.604,-6.445 0.73,-0.723 5.715,-3.563 5.687,-3.967 -0.675,0.359 -1.332,0.562 -2.033,0.846 -0.998,0.398 -1.508,0.39 -0.236,-0.418 0.732,-0.469 6.023,-4.141 6.66,-3.299 0.035,0.049 -7.172,5.574 -7.713,5.996 -3.303,2.576 -6.643,6.289 -8.547,10.045 -4.422,8.736 -6.470998,18.439 -4.111,28.129 1.949,8.008 5.486,16.047 13.478,19.832 3.815,1.805 7.745,4.41 11.344,6.635 3.975,2.455 8.33,4.711 12.623,6.554 -1.371,-2.093 -2.965,-4.041 -3.931,-6.373 -0.485,-1.17 -2.288,-7.365 0.042,-7.074 1.2,0.15 2.417,1.26 3.69,1.479 1.125,0.193 2.127,0.109 3.232,0.476 1.549,0.514 -0.693,4.826 -0.568,6.34 0.203,2.43 1.16,5.799 2.492,7.867 0.498,0.776 1.543,2.078 2.377,2.549 1.342,0.762 2.08,-0.49 2.803,-1.481 0.947,-1.3 1.142,-3.058 1.51,-4.583 0.173,-0.721 0.195,-3.315 0.728,-3.778 0.99,-0.861 0.629,1.692 0.619,1.758 -0.125,0.926 -0.646,2.576 -0.271,3.439 4.504,-2.558 9.033,-5.08 13.693,-7.347 4.285,-2.088 10.727,-4.323 13.211,-8.75 2.172,-3.873 2.813,-8.221 5.068,-12.041 1.481,-2.508 3.032,-4.994 4.397,-7.567 0.885,-1.666 2.4799997,-3.939 2.4799997,-5.888 -0.7869997,0 -1.4679997,0.451 -2.2649997,0.529 -1.184,0.113 -2.643,0.008 -3.83,-0.123 -2.748,-0.301 -1.28,-3.707 0.136,-4.74 0.34,-0.248 1.358,-0.967 1.741,-0.401 0.757,1.112 0.982,-1.156 1.045,-1.398 0.273,-1.084 1.244,-2.238 0.589,-3.291 -0.644,-1.035 -1.669,-2.065 -2.589,-2.869 -4.508,-3.948 -11.141,0.586 -15.086,3.295 -0.973,0.67 -1.916,1.373 -2.866,2.078 -0.908,0.672 -0.375,-0.834 0.104,-1.199 2.189,-1.68 4.559,-3.522 7.135,-4.563 0.988,-0.4 1.957,-0.84 2.959,-1.211 0.588,-0.217 3.539,-0.648 3.777,-1.08 0.633,-1.148 -4.172,-4.145 -4.941,-4.537 -2.666,-1.354 -4.766,-1.389 -7.362,0.133 -2.414,1.412 -4.388,3.607 -6.683,5.211 -0.764,0.535 -1.639,1.351 -2.541,1.627 -0.762,0.23 -1.221,-0.352 -0.377,-0.696 1.502,-0.609 -0.022,-0.965 -0.627,-1.377 -1.043,-0.709 -2.373,-1.166 -3.203,-2.144 -0.319,-0.375 -1.143,-1.213 -0.776,-1.791 0.639,-1.01 1.416,0.279 1.891,0.674 1.611,1.341 4.451,0.504 4.836,3.203 0.889,-0.649 1.805,-1.963 2.096,-3.047 0.449,-1.68 1.101,-0.608 0.626,0.672 2.174,-1.604 5.565,-5.496 8.668,-4.75 3.379,0.812 6.211,2.34 8.477,5.002 1.883,-1.623 3.242,-3.455 4.545,-5.571 1.762,-2.861 2.768,-5.052 0.816,-8.08 -0.322,0.178 -0.847,1.668 -1.05,1.95 -0.725,1.001 -1.473,1.964 -2.26,2.918 -0.684,0.826 -3.078,4.947 -4.113,3.644 1.539,-1.043 2.783,-3.406 4.003,-4.885 2.172,-2.625 3.483,-4.927 0.832,-7.584 -0.953,3.735 -1.773,-2.008 -2.646,-2.873 -1.408,-1.392 -2.701,-3.615 -4.986,-3.191 1.021,2.308 2.789,4.426 0.752,6.599 -0.891,0.954 -1.952,1.45 -3.123,1.987 -1.547,0.705 -2.147,0.129 -0.459,-0.764 1.185,-0.625 2.267,-1.129 3.248,-2.066 1.033,-0.985 0.755,-1.739 0.14,-3.047 -1.5,-3.201 -3.781,-5.334 -7.455,-4.541 -2.801,0.603 -5.437,2.095 -8.23,2.668 -2.94,0.603 -6.389,0.34 -9.307,-0.311 -3.357,-0.746 -6.539,-1.888 -9.965,-2.367 -1.58,-0.221 -3.162,-0.064 -4.74,-0.26 -1.229,-0.152 -3.332,0.401 -4.4,-0.103 0.722,-1.524 7.474,-0.742 8.904,-0.559 3.685,0.475 6.976,1.652 10.558,2.453 2.885,0.645 5.68,0.547 8.483,-0.101 2.93,-0.678 5.93,-2.039 8.875,-2.442 1.199,-0.164 2.74,-0.445 3.855,0.188 0.879,0.5 2.073,2.019 3.141,1.779 3.047,-0.683 5.439,3.475 6.898,5.44 2.075,0.574 3.711,3.656 4.262,5.552 0.317,1.084 1.762,3.561 0.908,4.596 -0.988,1.203 -1.572,2.869 -2.263,4.252 3.455,1.697 8.2439997,5.637 9.6499997,9.367 0.953,2.522 3.018,4.637 3.97499997,7.199 0.767,2.053 1.91000003,5.795 1.40400003,7.975 -0.006,0.027 0.166,-0.715 0,0"
             style="fill:#000000;fill-opacity:1;fill-rule:nonzero;stroke:none"
             id="path58"
             inkscape:connector-curvature="0" /></g><g
           id="g60"
           transform="translate(46.5933,71.6211)"><path
             d="m 0,0 c 2.553,-5.285 6.537,-13.758 8.969,-19.092 0.158,-0.349 1.855,-2.267 1.642,-2.525 -0.55,-0.658 -2.293,0.834 -2.74,1.279 -2.609,2.6 -4.324,5.529 -5.988,8.817 -1.592,3.144 -2.699,6.619 -4.586,9.597 -1.809,2.854 -3.141,5.487 -3.326,8.912 -0.174,3.235 -0.934,6.575 -0.108,9.776 0.842,3.259 2.455,6.056 3.742,9.136 0.122,0.291 0.754,2.364 1.426,1.153 0.459,-0.832 -0.896,-3.491 -1.213,-4.242 -1.257,-2.967 -2.72,-5.85 -2.244,-9.19 0.389,-2.732 1.717,-4.808 3.256,-7.006 1.695,-2.422 2.982,-5.037 4.793,-7.404 2.189,-2.861 4.117,-5.723 5.912,-8.856 0.758,-1.32 1.815,-2.904 1.684,-4.521 -0.1,-1.236 1.336,-3.285 0.844,-4.436 -0.649,-1.525 -1.75,2.231 -1.899,2.586 -0.771,1.819 -1.49,3.655 -2.652,5.264 C 7,-10.041 3.246,-2.633 2.705,-2.832 2.781,-2.992 0.027,0.01 0,0"
             style="fill:#000000;fill-opacity:1;fill-rule:evenodd;stroke:none"
             id="path62"
             inkscape:connector-curvature="0" /></g><g
           id="g64"
           transform="translate(96.7534,54.5195)"><path
             d="M 0,0 C 0.074,-0.533 0.904,-0.951 1.262,-1.27 1.961,-1.891 1.615,-3.756 1.621,-4.578 1.625,-5.1 0.754,-5.395 0.652,-4.75 c -0.136,0.871 -0.709,1.484 -0.923,2.291 -0.653,2.461 -2.381,2.48 -4.499,2.672 -2.009,0.183 -3.98,0.512 -5.992,0.682 -0.019,-0.786 1.647,-1.473 2.135,-1.993 0.824,-0.875 1.344,-2.007 1.094,-3.228 -0.129,-0.641 -0.19,-2.635 -0.947,-2.887 -0.856,-0.285 -1.002,2.908 -1.12,3.6 -0.386,2.24 -2.168,4.664 -4.32,5.117 -3.166,0.668 -5.896,2.012 -8.912,3.09 0.764,-1.184 2.102,-2.186 2.998,-3.338 1.344,-1.725 1.803,-3.213 2.016,-5.346 0.086,-0.867 1.621,-4.285 0.953,-4.871 -0.43,-0.377 -2.617,4.328 -2.973,4.912 -1.183,1.955 -2.541,3.988 -4.246,5.539 -1.676,1.524 -3.621,2.617 -5.219,4.242 -0.361,0.366 -2.787,2.608 -2.261,3.067 1.33,1.162 4.136,-2.428 4.693,-1.762 -1.229,0.539 -0.871,2.356 -0.375,1.613 1.002,-1.498 3.346,-2.459 4.984,-3.138 3.549,-1.475 7.334,-2.932 11.104,-3.647 -0.133,0.791 -3.147,2.408 -3.764,2.772 -2.017,1.183 -3.689,2.371 -5.404,3.998 -1.615,1.533 -2.494,4.207 -3.16,6.261 -0.364,1.129 -0.739,2.217 -1.176,3.321 -0.131,0.334 -0.574,2.978 0.476,1.918 1.202,-1.211 1.832,-3.174 2.874,-4.59 1.328,-1.809 2.263,-3.742 3.958,-5.356 1.6,-1.517 8.541,-6.007 6.557,-8.296 C -10.033,1.529 -8.928,1.754 -8.09,1.578 -6.322,1.205 -4.432,1.043 -2.627,0.98 -1.338,0.937 1.049,0.256 0.842,2.256 0.814,2.535 1.307,3.48 1.58,2.752 1.805,2.148 1.711,1.795 1.711,1.18 c 0.801,-0.264 2.06,0.093 2.92,0.066 1.607,-0.047 2.875,-0.4 4.422,-0.892 3.09,-0.983 5.74,-2.645 8.726,-3.77 -0.172,0.297 -2.302,3.379 -0.81,2.902 1.377,-0.437 1.47,-3.312 2.75,-4.158 1.068,-0.707 3.15,-1.58 3.476,-2.965 0.381,-1.619 -1.943,0.627 -2.234,0.852 C 15.215,-2.305 7.408,1.363 0,0 0.045,-0.312 0.127,0.023 0,0"
             style="fill:#000000;fill-opacity:1;fill-rule:evenodd;stroke:none"
             id="path66"
             inkscape:connector-curvature="0" /></g><g
           id="g68"
           transform="translate(94.6167,97.8711)"><path
             d="m 0,0 c -2.566,-2.844 -5.273,-6.365 -5.594,-10.406 -0.031,-0.407 -0.058,-1.963 -1.011,-1.25 -0.586,0.439 -0.559,2.426 -0.69,3.113 -0.195,1.057 -0.412,2.107 -0.559,3.172 -0.173,1.264 0.85,1.646 1.536,2.449 1.375,1.61 0.25,2.848 -0.147,4.586 -0.189,0.834 0.877,5.813 1.586,5.945 1.039,0.192 1.133,-2.568 1.688,-3.242 0.882,-1.072 4.765,-1.135 3.394,0.469 -1.062,1.24 -3.34,1.865 -3.658,3.414 -0.197,0.951 -0.274,1.928 -0.416,2.889 -0.258,1.757 -0.068,1.279 1.357,2.115 1.143,0.668 4.114,3.355 3.389,0.328 C 0.453,11.809 0.012,9.658 0.984,7.984 1.936,6.346 3.969,5.619 4.797,3.791 5.687,1.828 3.869,-0.066 2.436,-1.045 1.391,-1.758 0,-4.748 -1.205,-4.904 -2.969,-5.131 0.762,-0.715 0,0 -0.201,-0.223 0.379,-0.355 0,0"
             style="fill:#000000;fill-opacity:1;fill-rule:evenodd;stroke:none"
             id="path70"
             inkscape:connector-curvature="0" /></g><g
           id="g72"
           transform="translate(58.6421,108.127)"><path
             d="m 0,0 c -0.643,-0.48 -2.424,-1.441 -2.666,-2.131 -0.152,-0.432 -0.484,-1.08 -0.309,-1.553 0.211,-0.57 0.936,-0.613 0.864,-1.328 -0.405,-3.99 -3.145,-6.142 -4.784,-9.582 -0.218,-0.457 -0.158,-1.107 -0.834,-1.166 -0.294,-0.025 -1.197,-0.508 -0.916,0.367 0.557,1.733 1.131,3.409 1.29,5.223 0.343,3.975 0.515,6.707 3.419,9.635 2.17,2.191 4.707,3.746 7.008,5.715 C 3.574,5.609 4.625,5.189 4.355,4.434 4.113,3.762 3.799,3.264 3.43,2.658 2.654,1.385 2.176,-0.207 1.812,-1.645 1.352,-3.461 1.486,-4.863 2.85,-6.217 3.318,-6.684 3.729,-7.242 3.756,-7.934 3.797,-8.922 2.539,-8.654 2.316,-7.967 1.939,-6.801 0.217,-5.719 -0.48,-4.584 -1.766,-2.492 0.141,-1.867 0,0 -0.121,-0.092 0.027,-0.383 0,0"
             style="fill:#000000;fill-opacity:1;fill-rule:evenodd;stroke:none"
             id="path74"
             inkscape:connector-curvature="0" /></g><g
           id="g76"
           transform="translate(80.6616,82.6699)"><path
             d="m 0,0 c -0.178,3.068 -1.418,5.629 -0.338,8.676 1.1,3.092 2.065,5.953 2.697,9.164 0.291,1.476 0.838,2.699 1.614,3.986 0.588,0.977 2.304,2.195 2.506,3.287 0.105,0.565 0.894,0.344 1.078,0.032 C 7.746,24.818 7.238,24.223 7.154,24.035 6.373,22.246 4.902,20.818 4.738,18.795 4.604,17.123 4.631,15.828 4.182,14.211 3.873,13.092 3.191,11.895 3.037,10.756 2.838,9.33 2.953,7.988 2.736,6.564 2.443,4.623 1.852,2.904 2.092,0.943 2.277,-0.572 2.176,-1.934 2.611,-3.434 2.783,-4.035 4.363,-7.602 4.08,-8.018 3.285,-9.174 1.703,-5.898 1.547,-5.566 0.699,-3.77 0.293,-1.955 0,0 -0.061,1.049 0.051,-0.334 0,0"
             style="fill:#000000;fill-opacity:1;fill-rule:evenodd;stroke:none"
             id="path78"
             inkscape:connector-curvature="0" /></g><g
           id="g80"
           transform="translate(62.4604,83.3281)"><path
             d="M 0,0 C 0.143,3.23 1.117,6.203 2.24,9.203 2.559,10.061 4.248,15.74 4.928,15.689 6.34,15.584 5.037,10.037 4.82,9.176 4.045,6.1 3.576,2.844 3.68,-0.334 c 0.078,-2.469 0.238,-4.918 0.799,-7.328 0.343,-1.481 0.787,-3.014 1.464,-4.377 0.217,-0.434 1.043,-1.399 0.912,-1.926 -0.121,-0.476 -0.82,-0.473 -1.111,-0.201 -1.582,1.473 -2.644,4.045 -3.42,6.008 C 1.316,-5.607 0,-2.775 0,0 0.086,1.975 0,-0.408 0,0"
             style="fill:#000000;fill-opacity:1;fill-rule:evenodd;stroke:none"
             id="path82"
             inkscape:connector-curvature="0" /></g><g
           id="g84"
           transform="translate(49.9019,81.1816)"><path
             d="m 0,0 c -0.088,2.836 0.516,6.461 2.643,8.361 2.47,2.213 5.613,4.858 6.502,8.211 0.392,1.481 1.16,-0.211 1.017,-1.025 C 9.947,14.309 9.834,12.111 8.98,11.121 7.18,9.033 4.957,8.07 3.621,5.447 1.809,1.891 2.678,-0.174 4.52,-3.48 5.01,-4.359 9.4,-11.145 8.268,-11.715 7.418,-12.141 6.746,-10.236 6.447,-9.709 5.699,-8.387 5.189,-7.469 4.006,-6.48 1.727,-4.576 0,-3.154 0,0 -0.039,1.262 0,-0.125 0,0"
             style="fill:#000000;fill-opacity:1;fill-rule:evenodd;stroke:none"
             id="path86"
             inkscape:connector-curvature="0" /></g><g
           id="g88"
           transform="translate(79.0132,102.5605)"><path
             d="m 0,0 c -0.521,-6.666 -1.021,-13.309 -3.086,-19.73 -0.857,-2.676 -0.85,-5.989 0.209,-8.553 0.365,-0.881 2.225,-3.215 2.115,-3.99 -0.222,-1.584 -2.291,1.482 -2.427,1.787 -1.37,3.006 -3.204,5.183 -2.922,8.728 0.273,3.446 1.904,6.506 2.558,9.881 0.629,3.25 1.334,6.481 1.891,9.742 0.209,1.217 0.291,2.643 0.769,3.787 C -0.449,2.717 0.678,-0.047 0,0 -0.09,-1.152 -0.016,0 0,0"
             style="fill:#000000;fill-opacity:1;fill-rule:evenodd;stroke:none"
             id="path90"
             inkscape:connector-curvature="0" /></g><g
           id="g92"
           transform="translate(94.9702,86.1289)"><path
             d="M 0,0 C 1.783,0.273 3.092,0.811 4.49,1.959 4.873,2.275 5.512,3.176 6.02,3.279 6.928,3.467 6.566,2.23 6.273,1.908 5.301,0.832 5.027,-1.264 3.412,-1.742 1.867,-2.201 -0.809,-1.785 -1.973,-2.859 c -1.433,-1.325 -3.328,-1.045 -5.011,-1.588 -0.938,-0.303 -2.125,-0.625 -3.121,-0.43 -0.633,0.121 -0.588,1.049 0.027,1.172 2.041,0.408 3.185,1.721 4.301,3.361 C -4.492,1.545 -2.047,0.15 0,0 0.156,0.023 -0.58,0.043 0,0"
             style="fill:#000000;fill-opacity:1;fill-rule:evenodd;stroke:none"
             id="path94"
             inkscape:connector-curvature="0" /></g><g
           id="g96"
           transform="translate(64.8022,100.9063)"><path
             d="m 0,0 c -0.951,-0.012 -0.285,7.039 -0.156,8.121 0.086,0.74 1.593,6.977 2.527,7.176 C 4.211,15.691 2.139,8.609 1.908,7.691 1.648,6.65 0.822,0.01 0,0 -0.35,-0.006 0.354,0.004 0,0"
             style="fill:#000000;fill-opacity:1;fill-rule:evenodd;stroke:none"
             id="path98"
             inkscape:connector-curvature="0" /></g><g
           id="g100"
           transform="translate(99.1538,105.9316)"><path
             d="M 0,0 C -0.678,2.711 0.113,2.451 2.113,1.307 4.078,0.182 5.801,0.994 6.5,-1.637 7.061,-3.746 4.645,-3.004 3.168,-3.34 1.668,-3.68 -0.404,-0.09 0,0 -0.121,0.484 -0.037,-0.008 0,0"
             style="fill:#000000;fill-opacity:1;fill-rule:evenodd;stroke:none"
             id="path102"
             inkscape:connector-curvature="0" /></g><g
           id="g104"
           transform="translate(115.2007,71.3438)"><path
             d="M 0,0 C -2.52,0.068 -4.939,0.662 -6.85,2.434 -7.113,2.676 -9.088,4.26 -7.471,4.26 -6.256,4.26 -4.719,3.174 -3.527,2.816 -1.27,2.141 1.787,1.791 4.139,1.906 5.201,1.959 4.109,1.023 3.688,0.934 2.439,0.668 1.242,0.295 0,0 -0.967,0.025 0.373,0.088 0,0"
             style="fill:#000000;fill-opacity:1;fill-rule:evenodd;stroke:none"
             id="path106"
             inkscape:connector-curvature="0" /></g><g
           id="g108"
           transform="translate(95.1167,77.1914)"><path
             d="M 0,0 C -0.477,-0.012 -1.219,0.576 -0.66,1.049 0.287,1.85 1.162,2.086 2.25,2.5 3.281,2.893 4.568,3.785 5.309,4.602 5.855,5.209 6.871,7.246 7.537,7.506 8.975,8.068 6.816,3.352 6.809,2.805 6.768,0.645 1.516,0.338 0,0 -0.299,-0.008 0.57,0.127 0,0"
             style="fill:#000000;fill-opacity:1;fill-rule:evenodd;stroke:none"
             id="path110"
             inkscape:connector-curvature="0" /></g><g
           id="g112"
           transform="translate(108.8862,92.7129)"><path
             d="M 0,0 C -1.262,0.611 -5.066,2.18 -5.123,3.93 -5.154,4.912 -6.209,5.443 -6.902,5.928 -7.459,6.312 -9.512,8.234 -7.393,7.436 -5.33,6.656 -3.547,5.773 -2.033,4.115 -1.637,3.678 2.137,0.113 0,0 -0.244,0.119 0.602,0.033 0,0"
             style="fill:#000000;fill-opacity:1;fill-rule:evenodd;stroke:none"
             id="path114"
             inkscape:connector-curvature="0" /></g><g
           id="g116"
           transform="translate(114.4292,70.0625)"><path
             d="M 0,0 C 0.732,0.043 5.881,0.691 5.748,0.396 5.363,-0.461 2.674,-0.873 1.846,-1.066 0.07,-1.48 -1.172,-1.35 -2.834,-0.648 -4.541,0.068 -6.039,1.004 -7.57,2.041 -7.945,2.297 -8.92,2.719 -9.109,3.168 -9.275,3.561 -8.746,3.803 -8.451,3.662 -8.059,3.473 -0.049,-0.822 0,0 0.074,0.004 0,-0.01 0,0"
             style="fill:#000000;fill-opacity:1;fill-rule:evenodd;stroke:none"
             id="path118"
             inkscape:connector-curvature="0" /></g><g
           id="g120"
           transform="translate(106.1519,102.9043)"><path
             d="M 0,0 C 0.482,1.588 -0.168,3.641 -1.055,4.906 -1.344,5.32 -2.248,6.686 -1.848,7.197 -1.455,7.699 -0.414,6.873 -0.006,6.713 2.115,5.873 2.254,5.053 1.99,2.939 1.887,2.109 0.506,-2.605 0,0 0.17,0.561 0.031,-0.162 0,0"
             style="fill:#000000;fill-opacity:1;fill-rule:evenodd;stroke:none"
             id="path122"
             inkscape:connector-curvature="0" /></g><g
           id="g124"
           transform="translate(117.7886,73.9688)"><path
             d="m 0,0 c -2.402,0.307 -4.736,0.678 -6.859,1.932 -0.846,0.5 -1.68,1.035 -2.457,1.636 C -10.107,4.18 -8.84,4.854 -8.17,4.355 -6.236,2.92 -3.797,2.154 -1.512,1.504 -0.635,1.254 0.395,1.162 1.236,0.822 1.986,0.521 -0.035,-0.221 0,0 -0.609,0.078 0.002,0.012 0,0"
             style="fill:#000000;fill-opacity:1;fill-rule:evenodd;stroke:none"
             id="path126"
             inkscape:connector-curvature="0" /></g><g
           id="g128"
           transform="translate(108.8999,100.0449)"><path
             d="M 0,0 C -0.273,1.496 0.436,3.844 0.592,5.352 0.76,6.959 1.633,8.768 2.371,6.145 2.965,4.049 2.146,3.291 1.76,1.244 1.578,0.279 0,-2.143 0,0 -0.059,0.322 0,-0.098 0,0"
             style="fill:#000000;fill-opacity:1;fill-rule:evenodd;stroke:none"
             id="path130"
             inkscape:connector-curvature="0" /></g><g
           id="g132"
           transform="translate(109.4351,87.7461)"><path
             d="m 0,0 c 0,-1.359 -0.301,-2.588 -1.121,-3.693 -0.541,-0.729 -1.061,-1.471 -1.58,-2.213 -0.742,-1.059 -1.192,0.006 -0.838,0.715 0.863,1.74 1.17,3.586 2.039,5.328 0.162,0.326 0.357,1.748 1.072,1.572 C 0.189,1.557 -0.115,0.002 0,0 0,-0.014 -0.012,0 0,0"
             style="fill:#000000;fill-opacity:1;fill-rule:evenodd;stroke:none"
             id="path134"
             inkscape:connector-curvature="0" /></g><g
           id="g136"
           transform="translate(106.6323,91.0957)"><path
             d="m 0,0 c -0.221,-1.947 -1.629,-3.104 -2.797,-4.543 -0.307,-0.379 -0.879,-1.516 -1.56,-1.029 -0.704,0.502 0.527,1.453 0.748,1.896 C -3.059,-2.564 -0.346,4.154 0,0 -0.102,-0.898 -0.033,0.396 0,0"
             style="fill:#000000;fill-opacity:1;fill-rule:evenodd;stroke:none"
             id="path138"
             inkscape:connector-curvature="0" /></g><g
           id="g140"
           transform="translate(101.4077,91.666)"><path
             d="M 0,0 C -0.365,-0.023 -2.012,0.291 -1.889,0.945 -1.748,1.701 0.521,2.492 1.084,2.66 1.488,2.781 4.021,2.467 3.373,1.617 2.654,0.676 1.119,0.135 0,0 -0.605,-0.039 0.562,0.068 0,0"
             style="fill:#000000;fill-opacity:1;fill-rule:evenodd;stroke:none"
             id="path142"
             inkscape:connector-curvature="0" /></g><g
           id="g144"
           transform="translate(57.2397,42.6465)"><path
             d="M 0,0 C 1.439,-0.402 2.609,-0.971 3.936,-1.543 5.502,-2.219 7.24,-2.344 8.783,-3.045 8.283,-4.504 0.482,-1.406 0,0 0.326,-0.09 0.17,-0.496 0,0"
             style="fill:#000000;fill-opacity:1;fill-rule:evenodd;stroke:none"
             id="path146"
             inkscape:connector-curvature="0" /></g><g
           id="g148"
           transform="translate(83.3394,72.0352)"><path
             d="M 0,0 C -0.207,-0.359 -4.4,5.225 -3.654,6.744 -3.289,7.488 -2.197,4.486 -2.191,4.469 -1.578,2.941 -0.273,1.625 0,0 -0.029,-0.051 -0.066,0.396 0,0"
             style="fill:#000000;fill-opacity:1;fill-rule:evenodd;stroke:none"
             id="path150"
             inkscape:connector-curvature="0" /></g><g
           id="g152"
           transform="translate(82.5386,74.3438)"><path
             d="M 0,0 C 0.074,0.115 0.148,0.232 0.225,0.348 -0.025,0.197 5.066,-4.805 5.266,-5.381 5.658,-6.502 3.086,-4.342 2.934,-4.168 1.834,-2.91 0.703,-1.516 0,0 0.084,0.141 0.119,-0.26 0,0"
             style="fill:#000000;fill-opacity:1;fill-rule:evenodd;stroke:none"
             id="path154"
             inkscape:connector-curvature="0" /></g><g
           id="g156"
           transform="translate(93.1226,66.9922)"><path
             d="M 0,0 C -1.143,-0.672 -5.68,2.301 -4.939,2.99 -4.791,3.127 -0.227,0.451 0,0 -0.264,-0.156 -0.15,0.299 0,0"
             style="fill:#000000;fill-opacity:1;fill-rule:evenodd;stroke:none"
             id="path158"
             inkscape:connector-curvature="0" /></g><g
           id="g160"
           transform="translate(64.2671,38.4746)"><path
             d="M 0,0 C 1.494,0 2.867,0.051 4.344,0.322 6.15,0.654 5.641,-0.355 4.279,-0.477 2.895,-0.6 1.574,-0.441 0.201,-0.494 -1.225,-0.549 -0.014,0.32 0,0 0.811,0 0,0.01 0,0"
             style="fill:#000000;fill-opacity:1;fill-rule:evenodd;stroke:none"
             id="path162"
             inkscape:connector-curvature="0" /></g><g
           id="g164"
           transform="translate(99.7046,57.6211)"><path
             d="M 0,0 C -0.494,-1.961 -0.969,-1.559 -0.895,0.254 -0.883,0.498 -1.371,1.191 -1.139,1.432 -0.422,2.162 -0.025,0.203 0,0 -0.092,-0.367 -0.037,0.289 0,0"
             style="fill:#000000;fill-opacity:1;fill-rule:evenodd;stroke:none"
             id="path166"
             inkscape:connector-curvature="0" /></g><g
           id="g168"
           transform="translate(100.1265,61.3262)"><path
             d="M 0,0 C 0.178,-0.639 0.451,-1.375 0.465,-2.047 0.49,-3.238 -0.379,-1.826 -0.437,-1.646 -0.627,-1.057 -1.635,1.119 0,0"
             style="fill:#000000;fill-opacity:1;fill-rule:evenodd;stroke:none"
             id="path170"
             inkscape:connector-curvature="0" /></g><g
           id="g172"
           transform="translate(131.9565,78.3438)"><path
             d="m 0,0 c -3.025,0.281 -4.391,3.676 -3.584,6.336 0.262,0.861 1.289,2.875 2.48,2.684 C -0.453,8.916 1.674,6.955 0.842,6.311 0.584,6.113 -2.107,3.727 -0.266,3.613 0.793,3.549 0.232,5.777 1.818,5.48 4.303,5.012 2.1,-0.207 0,0 -0.6,0.055 0.619,-0.061 0,0"
             style="fill:#000000;fill-opacity:1;fill-rule:evenodd;stroke:none"
             id="path174"
             inkscape:connector-curvature="0" /></g><g
           id="g176"
           transform="translate(118.2476,119.4512)"><path
             d="m 0,0 c 2.395,0 2.928,-3.785 2.068,-5.379 -1.554,-2.879 -5.189,-1.307 -6.693,0.748 -0.818,1.119 -0.334,2.664 1.305,2.072 0.925,-0.334 1.271,-2.392 2.558,-1.873 1.838,0.743 -1.205,2.028 -1.441,2.319 C -3.383,-0.65 -0.861,-0.078 0,0 0.223,0 -0.207,-0.02 0,0"
             style="fill:#000000;fill-opacity:1;fill-rule:evenodd;stroke:none"
             id="path178"
             inkscape:connector-curvature="0" /></g><g
           id="g180"
           transform="translate(109.189,116.8594)"><path
             d="m 0,0 c -1.998,0.092 -3.291,1.592 -4.238,3.117 -0.424,0.682 0.843,2.045 1.5,2.129 C -1.633,5.389 -0.9,4.309 -0.219,3.699 0.719,2.863 1.732,3.164 2.629,3.859 3.16,4.271 4.883,4.889 4.775,3.629 4.561,1.066 2.146,0.336 0,0 -0.717,0.033 0.137,0.021 0,0"
             style="fill:#000000;fill-opacity:1;fill-rule:evenodd;stroke:none"
             id="path182"
             inkscape:connector-curvature="0" /></g><g
           id="g184"
           transform="translate(96.605,125.3574)"><path
             d="M 0,0 C -2.314,0.719 -3.174,2.217 -3.824,4.469 -4.787,7.785 -0.43,7.127 -0.363,4.072 -0.334,2.756 2.389,5.617 3.18,3.525 3.619,2.363 3.418,1.135 2.418,0.348 2.201,0.178 -0.062,-0.395 0,0 -0.354,0.109 -0.002,-0.008 0,0"
             style="fill:#000000;fill-opacity:1;fill-rule:evenodd;stroke:none"
             id="path186"
             inkscape:connector-curvature="0" /></g><g
           id="g188"
           transform="translate(75.5366,122.293)"><path
             d="m 0,0 c -1.139,0.082 -2.184,-0.838 -3.326,-0.91 -0.92,-0.059 -1.731,0.324 -2.559,0.652 -1.683,0.668 0.418,4.113 1.326,4.678 0.524,0.324 1.786,0.492 2.219,-0.09 C -1.756,3.547 -2.842,2.664 -3.184,2.045 -4.199,0.195 1.246,2.869 0,0 -0.305,0.021 0.062,0.143 0,0"
             style="fill:#000000;fill-opacity:1;fill-rule:evenodd;stroke:none"
             id="path190"
             inkscape:connector-curvature="0" /></g><g
           id="g192"
           transform="translate(101.9331,125.1973)"><path
             d="M 0,0 C -0.498,2.465 2.844,2.664 2.262,1.074 2.031,0.445 2.529,-0.922 3.406,-0.701 4.432,-0.443 4.031,1.354 5.512,1.285 7.875,1.176 5.408,-2.246 4.398,-2.621 2.707,-3.25 -0.508,-2.406 0,0 -0.037,0.187 -0.125,-0.588 0,0"
             style="fill:#000000;fill-opacity:1;fill-rule:evenodd;stroke:none"
             id="path194"
             inkscape:connector-curvature="0" /></g><g
           id="g196"
           transform="translate(91.978,124.998)"><path
             d="m 0,0 c 1.865,-0.24 2.223,-1.727 0.469,-2.658 -1.41,-0.746 -4.356,1.76 -4.567,3.06 -0.16,0.977 1.608,3.106 2.551,2.229 C -0.836,1.969 -1.705,1.613 -1.283,0.957 -1.191,0.812 -0.168,-0.627 0,0 0.33,-0.043 -0.01,-0.041 0,0"
             style="fill:#000000;fill-opacity:1;fill-rule:evenodd;stroke:none"
             id="path198"
             inkscape:connector-curvature="0" /></g><g
           id="g200"
           transform="translate(61.9409,120.7871)"><path
             d="m 0,0 c -0.574,-0.18 -1.191,-0.223 -1.406,-0.857 -0.24,-0.705 -0.735,-1.543 -1.58,-0.989 -1.487,0.979 -3.137,2.276 -0.676,3.313 0.613,0.258 0.588,0.834 1.08,1.195 C -1.678,3.326 -0.91,2.424 -0.27,1.936 0.256,1.537 1.199,1.205 0.848,0.355 0.777,0.187 0.105,-0.352 0,0 -0.303,-0.096 0.008,-0.02 0,0"
             style="fill:#000000;fill-opacity:1;fill-rule:evenodd;stroke:none"
             id="path202"
             inkscape:connector-curvature="0" /></g><g
           id="g204"
           transform="translate(64.9917,125.7598)"><path
             d="M 0,0 C 0.996,-0.027 0.596,1.258 1.672,1.354 2.961,1.471 4.645,0.15 3.188,-1.096 2.795,-1.432 0.344,-3.023 -0.027,-2.666 -0.475,-2.238 -1.49,0.377 0,0 0.461,-0.014 -0.254,0.064 0,0"
             style="fill:#000000;fill-opacity:1;fill-rule:evenodd;stroke:none"
             id="path206"
             inkscape:connector-curvature="0" /></g><g
           id="g208"
           transform="translate(55.771,117.6367)"><path
             d="m 0,0 c 0,2.049 1.748,0.6 2.391,-0.184 0.318,-0.386 0.168,-0.8 0.767,-1.003 0.301,-0.102 1.44,-0.25 1.631,-0.481 C 5.49,-2.516 2.857,-3.518 2.391,-3.316 1.32,-2.857 -0.135,-1.295 0,0 0,0.107 -0.035,-0.342 0,0"
             style="fill:#000000;fill-opacity:1;fill-rule:evenodd;stroke:none"
             id="path210"
             inkscape:connector-curvature="0" /></g><g
           id="g212"
           transform="translate(76.2612,124.6094)"><path
             d="M 0,0 C -3.49,-0.125 -1.572,5.006 0.467,3.176 0.844,2.836 2.814,2.602 2.41,1.746 1.973,0.82 0.912,0.258 0,0 -0.58,-0.02 0.221,0.062 0,0"
             style="fill:#000000;fill-opacity:1;fill-rule:evenodd;stroke:none"
             id="path214"
             inkscape:connector-curvature="0" /></g><g
           id="g216"
           transform="translate(134.7065,90.3828)"><path
             d="M 0,0 C -1.51,0.527 -3.672,2.32 -1.34,3.74 0.465,4.84 2.119,1.08 0,0 -0.631,0.221 0.1,0.051 0,0"
             style="fill:#000000;fill-opacity:1;fill-rule:evenodd;stroke:none"
             id="path218"
             inkscape:connector-curvature="0" /></g><g
           id="g220"
           transform="translate(111.9077,121.623)"><path
             d="M 0,0 C -2.262,-0.512 -3.123,0.803 -1.605,2.621 -0.932,3.43 0.369,2.918 0.818,2.123 1.049,1.713 1.35,0.625 0.986,0.219 0.879,0.1 0.043,-0.24 0,0 -0.119,-0.027 0.002,-0.02 0,0"
             style="fill:#000000;fill-opacity:1;fill-rule:evenodd;stroke:none"
             id="path222"
             inkscape:connector-curvature="0" /></g></g></g></g></svg>