<svg xmlns="http://www.w3.org/2000/svg" xmlns:svg="http://www.w3.org/2000/svg" xmlns:xlink="http://www.w3.org/1999/xlink" id="svg2" x="0" y="0" baseProfile="tiny" version="1.2" viewBox="0 0 138.2 129.8" xml:space="preserve"><switch><g><title id="title3569">Pext Logo</title><g id="g10"><g transform="matrix(1.25,0,0,-1.25,-44.416881,166.03808)"><g id="g14"><g id="g5414"><path id="path6899" fill="#FFFFFE" d="M52,103.3l-2.1,2.2v2.5l4.4,5.6l6.1,5.2l6.4,3.9 l6.4,2.8L81,127l8,1.5l6.9-0.1l12.2-2.5l8.4-4.6l5.1-3.6l5.2-4.4l5.7-7.5l3.9-7.4l3.2-7.7l0.9-7.8v-7.9l-2.8-6.8l-2.7-4.9 l-2.7-3.9l-5.1-4l-1.3-1.1l1.6-4.7v-2.3l-2.1-4.5l-3.4-3.2l-3-3.9l-2.2-1l-1,0.7l-3.3-2.4h-2l-4.5,0.8l-6.1,2.1l-3.5,0.2 L93,35.5l-12-2.8l-7.1-0.1l-3.7,1.6l-5.7,2.4l-6.1,4.1l-1.5,1.6L49.7,48l-5.4,7.2l-3.2,7.5l-1.7,7.8l0.5,10.7l3.6,11.7 l4.7,6.4L52,103.3z"/><g id="g52" transform="translate(86.6968,131.2461)"><path id="path54" d="M3.2-4.1c-0.4,0.7-1.5,0-1.8-0.5C1.1-5.5,0.3-5.3-0.4-5.1 c-0.8,0.2-4.7,1.4-3-1C-1.5-8.9,5.6-8.1,3.2-4.1C3-3.8,3.3-4.3,3.2-4.1"/></g><g id="g56" transform="translate(136.5444,78.998)"><path id="path58" d="M3.2-4.1C2.9-5.6,2.2-7,1.7-8.4C0.6-7.1,0-7-1.7-7 C-3-7-4.4-8.5-3.8-9.8c0.4-0.9,0.2-2.5,0.8-3.3c0.8-1.1,0-0.4-0.1-1.7c0-0.6,0.3-0.8,0.7-1.1l-0.9-1.5 c-0.9,1.6-2.2,2-3.9,1.8c-2.3-0.2-3-1.5-3.6-3.6c-0.4-1.8,1.4-3.7,2.7-1.7c0.9,1.3,1.2,3.3,3.2,1.8c-1.8-2-4-3.5-6.2-5.1 c-1,1.4-2.4,4.1-4.3,4.2c0.9,1.7,1.4,1.7,3,2.7c1.2,0.7,2,1.8,3.1,2.7c1.1,1,1.1,2.2,2.5,2.8c1,0.4,1.5,2.4,1.6,3.4 c0.1,0.7,0.6,3.2-0.2,3.7C-6.1-4.2-5.8-1.9-6.1-1c-1.1,2.7-3.6,5.2-4.4,8C-9,6.8-7.4,5.3-5.9,6c1.2,0.6,2.3,2.4,2.5,3.6 c0.1,1.2-0.2,2.6-1.2,3.4C-5.4,13.8-8,15.4-9,14.3c-1.1-1.3,0.9-2.1,1.7-2.5C-6.2,11-7.1,10-7.7,9.3 c-1.1-1.2-3.7,5.6-5.1,1.5c-1.1,1.9-1.7,3.9-2.2,6c1.4-1.7,5.4-1.3,4.9,1.4c-0.3,1.5-1.2,0.7-2,0.5c-1.2-0.3-0.2,0.9,0.5,1.1 c1.5,0.5,1.7-0.5,2.7,1.1c0.5,0.7-0.7,1.6-1.3,1.7c-1.8,0.3-5.4-0.4-6.1-2.4c-0.6,1.1-2.6,3.6,0,3.5c1.7-0.1,2.2,3,0.4,3.5 c-1,0.3-2.7,1-3.7,0.6c-1.9-0.8,0.3-2.2,0.3-3.4c-1.2,0.9-2.7,2.4-3.7,3.5c0.4,0.7,2,2.5,1,3.5c-0.9,0.9-2,2.3-3.1,0.7 c-0.6-0.8-0.3-1.7-0.7-2.5c-1,0.5-2.1,0.9-3,1.5c0.1,0.3,2.2,0.5,2.6,0.8c1.9,1.1-1.3,1.7-1.6,1.8c-1.5,0.5-2.2,0.2-2.7-1.2 c-0.4-1.1-2.8,0.3-3.3,0.8c0.9,0.7,2.7,0.3,3.2,1.7c0.4,1,0.2,3.5-1,4c-1.5,0.7-2.3,0.4-3.7,0.6c-0.7,0.1-3.9,0.1-3.3-1.3 c0.4-1,1.7-1.7,2.8-1.7c0.5,0,2.8,0.4,2.9-0.3c0.4-1.5-2.4,0.4-3-0.1c-0.6-0.4-0.7-0.7-0.9-1.4c-0.4-0.1-2,1-2.4,1.2 c-0.5,0.3-1.4,0.7-1.8,1.2c-0.5,0.7,0,1.2-0.9,1.7c-0.4,0.2-1.3,0.6-1.7,0.4c-1.1-0.6-0.4-0.9-2.1-0.2 c-0.5,0.2-0.8,1.6-1,2.1c-0.4,0.9-1.1,1.5-1.8,2.2c0,0-0.9,0.4-1,0.5c-0.4,0.2-0.8,0-1.3-0.1c-3.3-0.7-4.6-3.7-7.5-5 c-3.3-1.5-6.5-3.3-9.7-4.9c0.9,2,1.2,1.8,3.1,2.3c1.5,0.4-0.3,3.1-1.7,2.8c-2.3-0.4-6.8-4.4-2.9-5.8 c-1.8-1.2-3.7-2.1-5.5-3.2c-1.4-0.8-2.7-1.7-4.1-2.5c-0.5-0.3-2.7-2.1-3.3-1.9c-0.8,0.3-2-0.1-3,0.2c-1,0.4-1,2.4-0.5,3.1 c1.4,2,2.5,3.8,4.3,5.5c4.1,3.7,8.2,7.7,13.7,9.3c1,0.3,1.7,1.1,2.7,1.4c1.4,0.5,2.7,0.9,4.2,1.2c3,0.6,6,1.3,9,1.9 c9.5,1.9,20.5-0.1,28.9-4.7c4.5-2.5,8.8-5.5,12.4-9.2c0.9-0.9,5.2-4.9,4.1-6c-0.6-0.5-1.1-2.5-1.9-2.4 c-1.3,0.2-1,1.5-1.1,2.4c2.1-0.5,2.1,1.7,1.2,2.9C-9,32-10.1,32-10.7,32c-1.2-0.1-0.8-1.8-0.7-2.5c-2.6,2.5-1.9-2.5-0.9-3.8 c2.3-3.1,5.6-2.9,7.6,0.3c2.1-2,3.1-5.2,4.4-7.8c0.6-1.4-2.3-1.4-3-0.2c-0.5,1,2.3,1,1,2.9c-0.6,1-1.8,1.6-3,1.1 C-7,21.2-6.4,19-5.9,17.8c0.5-1.5,1.8-2.9,3.1-3.8c1.3-0.8,2.8,0.5,3.8,1.1c0.8-2,1.7-3.9,2.1-6.1c0.2-1.1,0.4-2.3,0.2-3.4 C2.8,5.5,1.6,4.5,1.3,5C0.3,6.6-1,7.9-1.4,5.2c-0.1-0.8,1.3-2.3,1.9-2.7c1.2-0.8,2.1-0.2,2.8,0.6c0.4-0.5,0.3-2.4,0.3-3 C3.6-1.3,3.5-2.7,3.2-4.1C3.1-4.6,3.5-2.7,3.2-4.1 M-1-13.6c-0.3,0.1-0.6,0.2-0.8,0.3c0.2,0.4,1,3,1.2,2.9 C1.3-11.2-0.4-12.2-1-13.6C-1.3-13.5-0.6-12.7-1-13.6 M4.5-0.3c-0.2,0.9,0.1,2.2,0,3.2C4.4,4.1,4.1,5.2,4.2,6.4 c0.2,2.8-0.8,6.4-2.1,8.9c-1.4,2.7-2.4,5.5-3.8,8.2c-1.5,2.8-3.4,5.4-5.2,8c-2.7,4.1-7.4,7.5-11.4,10.2 c-4.7,3.3-10,5.8-15.6,6.9c-5.1,1-10.1,1.2-15.4,1.1c-2.2,0-4.7-1-6.9-1.4c-3-0.6-6.1-0.9-8.9-2c-5.3-2.2-10.8-4.8-14.9-8.8 c-2.9-2.8-11.4-10-4.4-13.2c-4.8-4-8.5-7.5-10.4-13.6c-2-6.1-3.5-12.7-2.6-19.2c0.9-6,3.1-12.7,6.6-17.7 c1.6-2.4,3.6-4.4,5.6-6.4c0.7-0.7,5.7-3.6,5.7-4c-0.7,0.4-1.3,0.6-2,0.8c-1,0.4-1.5,0.4-0.2-0.4c0.7-0.5,6-4.1,6.7-3.3 c0,0-7.2,5.6-7.7,6c-3.3,2.6-6.6,6.3-8.5,10C-96-14.8-98-5.1-95.7,4.6c1.9,8,5.5,16,13.5,19.8c3.8,1.8,7.7,4.4,11.3,6.6 c4,2.5,8.3,4.7,12.6,6.6c-1.4-2.1-3-4-3.9-6.4c-0.5-1.2-2.3-7.4,0-7.1c1.2,0.1,2.4,1.3,3.7,1.5c1.1,0.2,2.1,0.1,3.2,0.5 c1.5,0.5-0.7,4.8-0.6,6.3c0.2,2.4,1.2,5.8,2.5,7.9c0.5,0.8,1.5,2.1,2.4,2.5c1.3,0.8,2.1-0.5,2.8-1.5c0.9-1.3,1.1-3.1,1.5-4.6 c0.2-0.7,0.2-3.3,0.7-3.8c1-0.9,0.6,1.7,0.6,1.8c-0.1,0.9-0.6,2.6-0.3,3.4c4.5-2.6,9-5.1,13.7-7.3c4.3-2.1,10.7-4.3,13.2-8.8 c2.2-3.9,2.8-8.2,5.1-12c1.5-2.5,3-5,4.4-7.6c0.9-1.7,2.5-3.9,2.5-5.9c-0.8,0-1.5,0.5-2.3,0.5c-1.2,0.1-2.6,0-3.8-0.1 c-2.7-0.3-1.3-3.7,0.1-4.7c0.3-0.2,1.4-1,1.7-0.4c0.8,1.1,1-1.2,1-1.4c0.3-1.1,1.2-2.2,0.6-3.3c-0.6-1-1.7-2.1-2.6-2.9 c-4.5-3.9-11.1,0.6-15.1,3.3c-1,0.7-1.9,1.4-2.9,2.1c-0.9,0.7-0.4-0.8,0.1-1.2c2.2-1.7,4.6-3.5,7.1-4.6c1-0.4,2-0.8,3-1.2 c0.6-0.2,3.5-0.6,3.8-1.1c0.6-1.1-4.2-4.1-4.9-4.5c-2.7-1.4-4.8-1.4-7.4,0.1c-2.4,1.4-4.4,3.6-6.7,5.2 c-0.8,0.5-1.6,1.4-2.5,1.6c-0.8,0.2-1.2-0.4-0.4-0.7c1.5-0.6,0-1-0.6-1.4c-1-0.7-2.4-1.2-3.2-2.1c-0.3-0.4-1.1-1.2-0.8-1.8 c0.6-1,1.4,0.3,1.9,0.7c1.6,1.3,4.5,0.5,4.8,3.2c0.9-0.6,1.8-2,2.1-3c0.4-1.7,1.1-0.6,0.6,0.7c2.2-1.6,5.6-5.5,8.7-4.8 c3.4,0.8,6.2,2.3,8.5,5c1.9-1.6,3.2-3.5,4.5-5.6c1.8-2.9,2.8-5.1,0.8-8.1c-0.3,0.2-0.8,1.7-1.1,2c-0.7,1-1.5,2-2.3,2.9 c-0.7,0.8-3.1,4.9-4.1,3.6c1.5-1,2.8-3.4,4-4.9c2.2-2.6,3.5-4.9,0.8-7.6c-1,3.7-1.8-2-2.6-2.9c-1.4-1.4-2.7-3.6-5-3.2 c1,2.3,2.8,4.4,0.8,6.6c-0.9,1-2,1.5-3.1,2c-1.5,0.7-2.1,0.1-0.5-0.8c1.2-0.6,2.3-1.1,3.2-2.1c1-1,0.8-1.7,0.1-3 c-1.5-3.2-3.8-5.3-7.5-4.5c-2.8,0.6-5.4,2.1-8.2,2.7c-2.9,0.6-6.4,0.3-9.3-0.3c-3.4-0.7-6.5-1.9-10-2.4 c-1.6-0.2-3.2-0.1-4.7-0.3c-1.2-0.2-3.3,0.4-4.4-0.1c0.7-1.5,7.5-0.7,8.9-0.6c3.7,0.5,7,1.7,10.6,2.5 c2.9,0.6,5.7,0.5,8.5-0.1c2.9-0.7,5.9-2,8.9-2.4c1.2-0.2,2.7-0.4,3.9,0.2c0.9,0.5,2.1,2,3.1,1.8c3-0.7,5.4,3.5,6.9,5.4 c2.1,0.6,3.7,3.7,4.3,5.6c0.3,1.1,1.8,3.6,0.9,4.6c-1,1.2-1.6,2.9-2.3,4.3c3.5,1.7,8.2,5.6,9.6,9.4c1,2.5,3,4.6,4,7.2 C3.9-6.2,5-2.5,4.5-0.3C4.5-0.3,4.7-1,4.5-0.3"/></g><g id="g60" transform="translate(46.5933,71.6211)"><path id="path62" d="M3.2-4.1c2.6-5.3,6.5-13.8,9-19.1c0.2-0.3,1.9-2.3,1.6-2.5 c-0.6-0.7-2.3,0.8-2.7,1.3c-2.6,2.6-4.3,5.5-6,8.8C3.5-12.5,2.4-9,0.5-6c-1.8,2.9-3.1,5.5-3.3,8.9C-3,6.1-3.8,9.5-2.9,12.7 c0.8,3.3,2.5,6.1,3.7,9.1c0.1,0.3,0.8,2.4,1.4,1.2c0.5-0.8-0.9-3.5-1.2-4.2c-1.3-3-2.7-5.9-2.2-9.2c0.4-2.7,1.7-4.8,3.3-7 c1.7-2.4,3-5,4.8-7.4c2.2-2.9,4.1-5.7,5.9-8.9c0.8-1.3,1.8-2.9,1.7-4.5c-0.1-1.2,1.3-3.3,0.8-4.4c-0.6-1.5-1.8,2.2-1.9,2.6 c-0.8,1.8-1.5,3.7-2.7,5.3c-0.5,0.7-4.3,8.1-4.8,7.9C6-7.1,3.2-4.1,3.2-4.1"/></g><g id="g64" transform="translate(96.7534,54.5195)"><path id="path66" d="M3.2-4.1c0.1-0.5,0.9-1,1.3-1.3C5.2-6,4.8-7.8,4.8-8.7 c0-0.5-0.9-0.8-1-0.2C3.7-8,3.1-7.4,2.9-6.6C2.3-4.1,0.5-4.1-1.6-3.9c-2,0.2-4,0.5-6,0.7c0-0.8,1.6-1.5,2.1-2 c0.8-0.9,1.3-2,1.1-3.2c-0.1-0.6-0.2-2.6-0.9-2.9c-0.9-0.3-1,2.9-1.1,3.6C-6.8-5.5-8.6-3-10.7-2.6c-3.2,0.7-5.9,2-8.9,3.1 c0.8-1.2,2.1-2.2,3-3.3c1.3-1.7,1.8-3.2,2-5.3c0.1-0.9,1.6-4.3,1-4.9c-0.4-0.4-2.6,4.3-3,4.9c-1.2,2-2.5,4-4.2,5.5 c-1.7,1.5-3.6,2.6-5.2,4.2c-0.4,0.4-2.8,2.6-2.3,3.1c1.3,1.2,4.1-2.4,4.7-1.8c-1.2,0.5-0.9,2.4-0.4,1.6c1-1.5,3.3-2.5,5-3.1 c3.5-1.5,7.3-2.9,11.1-3.6c-0.1,0.8-3.1,2.4-3.8,2.8c-2,1.2-3.7,2.4-5.4,4c-1.6,1.5-2.5,4.2-3.2,6.3 c-0.4,1.1-0.7,2.2-1.2,3.3c-0.1,0.3-0.6,3,0.5,1.9c1.2-1.2,1.8-3.2,2.9-4.6c1.3-1.8,2.3-3.7,4-5.4c1.6-1.5,8.5-6,6.6-8.3 c0.8-0.4,1.9-0.1,2.7-0.3C-3.1-2.9-1.2-3,0.6-3.1c1.3,0,3.7-0.7,3.5,1.3c0,0.3,0.5,1.2,0.7,0.5c0.2-0.6,0.1-1,0.1-1.6 C5.7-3.2,7-2.8,7.8-2.8c1.6,0,2.9-0.4,4.4-0.9c3.1-1,5.7-2.6,8.7-3.8c-0.2,0.3-2.3,3.4-0.8,2.9c1.4-0.4,1.5-3.3,2.8-4.2 c1.1-0.7,3.1-1.6,3.5-3c0.4-1.6-1.9,0.6-2.2,0.9C18.4-6.4,10.6-2.7,3.2-4.1C3.2-4.4,3.3-4.1,3.2-4.1"/></g><g id="g68" transform="translate(94.6167,97.8711)"><path id="path70" d="M3.2-4.1c-2.6-2.8-5.3-6.4-5.6-10.4c0-0.4-0.1-2-1-1.3 C-4-15.3-4-13.3-4.1-12.6c-0.2,1.1-0.4,2.1-0.6,3.2C-4.8-8.2-3.8-7.8-3.1-7c1.4,1.6,0.3,2.8-0.1,4.6 c-0.2,0.8,0.9,5.8,1.6,5.9c1,0.2,1.1-2.6,1.7-3.2c0.9-1.1,4.8-1.1,3.4,0.5C2.3,2,0.1,2.6-0.3,4.2c-0.2,1-0.3,1.9-0.4,2.9 c-0.3,1.8-0.1,1.3,1.4,2.1c1.1,0.7,4.1,3.4,3.4,0.3C3.7,7.7,3.2,5.6,4.2,3.9c1-1.6,3-2.4,3.8-4.2c0.9-2-0.9-3.9-2.4-4.8 C4.6-5.9,3.2-8.8,2-9C0.2-9.2,4-4.8,3.2-4.1C3-4.3,3.6-4.4,3.2-4.1"/></g><g id="g72" transform="translate(58.6421,108.127)"><path id="path74" d="M3.2-4.1C2.6-4.6,0.8-5.5,0.5-6.2C0.4-6.7,0.1-7.3,0.2-7.8 c0.2-0.6,0.9-0.6,0.9-1.3c-0.4-4-3.1-6.1-4.8-9.6c-0.2-0.5-0.2-1.1-0.8-1.2c-0.3,0-1.2-0.5-0.9,0.4c0.6,1.7,1.1,3.4,1.3,5.2 c0.3,4,0.5,6.7,3.4,9.6c2.2,2.2,4.7,3.7,7,5.7c0.5,0.4,1.6,0,1.3-0.7C7.3-0.3,7-0.8,6.6-1.4C5.9-2.7,5.4-4.3,5-5.7 c-0.5-1.8-0.3-3.2,1-4.6c0.5-0.5,0.9-1,0.9-1.7c0-1-1.2-0.7-1.4,0c-0.4,1.2-2.1,2.2-2.8,3.4C1.4-6.6,3.3-6,3.2-4.1 C3.1-4.2,3.2-4.5,3.2-4.1"/></g><g id="g76" transform="translate(80.6616,82.6699)"><path id="path78" d="M3.2-4.1C3-1,1.8,1.5,2.9,4.6c1.1,3.1,2.1,6,2.7,9.2 c0.3,1.5,0.8,2.7,1.6,4c0.6,1,2.3,2.2,2.5,3.3c0.1,0.6,0.9,0.3,1.1,0c0.2-0.3-0.3-0.9-0.4-1.1c-0.8-1.8-2.3-3.2-2.4-5.2 c-0.1-1.7-0.1-3-0.6-4.6C7.1,9,6.4,7.8,6.2,6.7C6,5.2,6.2,3.9,5.9,2.5C5.6,0.5,5.1-1.2,5.3-3.1C5.5-4.7,5.4-6,5.8-7.5 c0.2-0.6,1.8-4.2,1.5-4.6C6.5-13.3,4.9-10,4.7-9.7C3.9-7.9,3.5-6,3.2-4.1C3.1-3,3.3-4.4,3.2-4.1"/></g><g id="g80" transform="translate(62.4604,83.3281)"><path id="path82" d="M3.2-4.1c0.1,3.2,1.1,6.2,2.2,9.2c0.3,0.9,2,6.5,2.7,6.5 C9.5,11.5,8.2,5.9,8,5.1C7.2,2,6.8-1.2,6.9-4.4C7-6.9,7.1-9.3,7.7-11.8c0.3-1.5,0.8-3,1.5-4.4c0.2-0.4,1-1.4,0.9-1.9 c-0.1-0.5-0.8-0.5-1.1-0.2c-1.6,1.5-2.6,4-3.4,6C4.5-9.7,3.2-6.9,3.2-4.1C3.3-2.1,3.2-4.5,3.2-4.1"/></g><g id="g84" transform="translate(49.9019,81.1816)"><path id="path86" d="M3.2-4.1C3.1-1.3,3.7,2.4,5.8,4.3c2.5,2.2,5.6,4.9,6.5,8.2 c0.4,1.5,1.2-0.2,1-1C13.1,10.2,13,8,12.2,7c-1.8-2.1-4-3.1-5.4-5.7C5-2.2,5.9-4.3,7.7-7.6c0.5-0.9,4.9-7.7,3.7-8.2 c-0.8-0.4-1.5,1.5-1.8,2c-0.7,1.3-1.3,2.2-2.4,3.2C4.9-8.7,3.2-7.2,3.2-4.1C3.2-2.8,3.2-4.2,3.2-4.1"/></g><g id="g88" transform="translate(79.0132,102.5605)"><path id="path90" d="M3.2-4.1c-0.5-6.7-1-13.3-3.1-19.7c-0.9-2.7-0.8-6,0.2-8.6 c0.4-0.9,2.2-3.2,2.1-4c-0.2-1.6-2.3,1.5-2.4,1.8c-1.4,3-3.2,5.2-2.9,8.7c0.3,3.4,1.9,6.5,2.6,9.9C0.3-12.7,1-9.5,1.5-6.2 C1.7-5,1.8-3.6,2.3-2.4C2.8-1.4,3.9-4.1,3.2-4.1C3.1-5.2,3.2-4.1,3.2-4.1"/></g><g id="g92" transform="translate(94.9702,86.1289)"><path id="path94" d="M3.2-4.1c1.8,0.3,3.1,0.8,4.5,2c0.4,0.3,1,1.2,1.5,1.3 c0.9,0.2,0.5-1,0.3-1.4c-1-1.1-1.2-3.2-2.9-3.7C5.1-6.3,2.4-5.9,1.2-7c-1.4-1.3-3.3-1-5-1.6C-4.7-8.8-5.9-9.2-6.9-9 c-0.6,0.1-0.6,1,0,1.2c2,0.4,3.2,1.7,4.3,3.4C-1.3-2.5,1.2-3.9,3.2-4.1C3.4-4.1,2.6-4,3.2-4.1"/></g><g id="g96" transform="translate(64.8022,100.9063)"><path id="path98" d="M3.2-4.1c-1,0-0.3,7-0.2,8.1c0.1,0.7,1.6,7,2.5,7.2 c1.8,0.4-0.2-6.7-0.5-7.6C4.8,2.6,4-4.1,3.2-4.1C2.9-4.1,3.6-4.1,3.2-4.1"/></g><g id="g100" transform="translate(99.1538,105.9316)"><path id="path102" d="M3.2-4.1C2.5-1.4,3.3-1.6,5.3-2.8c2-1.1,3.7-0.3,4.4-2.9 c0.6-2.1-1.9-1.4-3.3-1.7C4.9-7.8,2.8-4.2,3.2-4.1C3.1-3.6,3.2-4.1,3.2-4.1"/></g><g id="g104" transform="translate(115.2007,71.3438)"><path id="path106" d="M3.2-4.1C0.7-4-1.7-3.4-3.6-1.7c-0.3,0.2-2.2,1.8-0.6,1.8 c1.2,0,2.8-1.1,3.9-1.4C1.9-2,5-2.3,7.3-2.2c1.1,0.1,0-0.9-0.5-1C5.6-3.4,4.4-3.8,3.2-4.1C2.2-4.1,3.6-4,3.2-4.1"/></g><g id="g108" transform="translate(95.1167,77.1914)"><path id="path110" d="M3.2-4.1C2.7-4.1,2-3.5,2.5-3c0.9,0.8,1.8,1,2.9,1.5 c1,0.4,2.3,1.3,3.1,2.1c0.5,0.6,1.6,2.6,2.2,2.9C12.2,4,10-0.7,10-1.3C10-3.4,4.7-3.8,3.2-4.1C2.9-4.1,3.8-4,3.2-4.1"/></g><g id="g112" transform="translate(108.8862,92.7129)"><path id="path114" d="M3.2-4.1C1.9-3.5-1.9-1.9-1.9-0.2c0,1-1.1,1.5-1.8,2 c-0.6,0.4-2.6,2.3-0.5,1.5C-2.1,2.6-0.3,1.7,1.2,0C1.6-0.4,5.3-4,3.2-4.1C3-4,3.8-4.1,3.2-4.1"/></g><g id="g116" transform="translate(114.4292,70.0625)"><path id="path118" d="M3.2-4.1c0.7,0,5.9,0.7,5.7,0.4C8.6-4.6,5.9-5,5-5.2 C3.3-5.6,2-5.4,0.4-4.7C-1.3-4-2.8-3.1-4.4-2.1c-0.4,0.3-1.3,0.7-1.5,1.1c-0.2,0.4,0.4,0.6,0.7,0.5C-4.9-0.6,3.2-4.9,3.2-4.1 C3.3-4.1,3.2-4.1,3.2-4.1"/></g><g id="g120" transform="translate(106.1519,102.9043)"><path id="path122" d="M3.2-4.1C3.7-2.5,3-0.5,2.1,0.8C1.9,1.2,1,2.6,1.4,3.1 c0.4,0.5,1.4-0.3,1.8-0.5c2.1-0.8,2.3-1.7,2-3.8C5.1-2,3.7-6.7,3.2-4.1C3.4-3.5,3.2-4.3,3.2-4.1"/></g><g id="g124" transform="translate(117.7886,73.9688)"><path id="path126" d="M3.2-4.1C0.8-3.8-1.5-3.4-3.7-2.2c-0.8,0.5-1.7,1-2.5,1.6 C-6.9,0.1-5.6,0.8-5,0.3C-3-1.2-0.6-1.9,1.7-2.6c0.9-0.3,1.9-0.3,2.7-0.7C5.2-3.6,3.2-4.3,3.2-4.1C2.6-4,3.2-4.1,3.2-4.1"/></g><g id="g128" transform="translate(108.8999,100.0449)"><path id="path130" d="M3.2-4.1C2.9-2.6,3.6-0.2,3.8,1.3c0.2,1.6,1,3.4,1.8,0.8 C6.2,0,5.3-0.8,5-2.8C4.8-3.8,3.2-6.2,3.2-4.1C3.1-3.8,3.2-4.2,3.2-4.1"/></g><g id="g132" transform="translate(109.4351,87.7461)"><path id="path134" d="M3.2-4.1c0-1.4-0.3-2.6-1.1-3.7C1.5-8.5,1-9.3,0.5-10 c-0.7-1.1-1.2,0-0.8,0.7c0.9,1.7,1.2,3.6,2,5.3c0.2,0.3,0.4,1.7,1.1,1.6C3.4-2.5,3.1-4.1,3.2-4.1C3.2-4.1,3.2-4.1,3.2-4.1"/></g><g id="g136" transform="translate(106.6323,91.0957)"><path id="path138" d="M3.2-4.1C3-6,1.6-7.2,0.4-8.6c-0.3-0.4-0.9-1.5-1.6-1 c-0.7,0.5,0.5,1.5,0.7,1.9C0.1-6.7,2.9,0.1,3.2-4.1C3.1-5,3.2-3.7,3.2-4.1"/></g><g id="g140" transform="translate(101.4077,91.666)"><path id="path142" d="M3.2-4.1c-0.4,0-2,0.3-1.9,0.9c0.1,0.8,2.4,1.5,3,1.7 c0.4,0.1,2.9-0.2,2.3-1C5.9-3.4,4.3-4,3.2-4.1C2.6-4.1,3.8-4,3.2-4.1"/></g><g id="g144" transform="translate(57.2397,42.6465)"><path id="path146" d="M3.2-4.1c1.4-0.4,2.6-1,3.9-1.5c1.6-0.7,3.3-0.8,4.8-1.5 C11.5-8.6,3.7-5.5,3.2-4.1C3.5-4.2,3.4-4.6,3.2-4.1"/></g><g id="g148" transform="translate(83.3394,72.0352)"><path id="path150" d="M3.2-4.1C3-4.5-1.2,1.1-0.5,2.7C-0.1,3.4,1,0.4,1,0.4 C1.6-1.2,2.9-2.5,3.2-4.1C3.2-4.1,3.1-3.7,3.2-4.1"/></g><g id="g152" transform="translate(82.5386,74.3438)"><path id="path154" d="M3.2-4.1C3.3-4,3.3-3.9,3.4-3.7c-0.3-0.2,4.8-5.2,5-5.7 c0.4-1.1-2.2,1-2.3,1.2C5-7,3.9-5.6,3.2-4.1C3.3-4,3.3-4.4,3.2-4.1"/></g><g id="g156" transform="translate(93.1226,66.9922)"><path id="path158" d="M3.2-4.1c-1.1-0.7-5.7,2.3-4.9,3C-1.6-1,3-3.6,3.2-4.1 C2.9-4.2,3.1-3.8,3.2-4.1"/></g><g id="g160" transform="translate(64.2671,38.4746)"><path id="path162" d="M3.2-4.1c1.5,0,2.9,0.1,4.3,0.3c1.8,0.3,1.3-0.7-0.1-0.8 c-1.4-0.1-2.7,0-4.1,0C2-4.6,3.2-3.8,3.2-4.1C4-4.1,3.2-4.1,3.2-4.1"/></g><g id="g164" transform="translate(99.7046,57.6211)"><path id="path166" d="M3.2-4.1c-0.5-2-1-1.6-0.9,0.3c0,0.2-0.5,0.9-0.2,1.2 C2.8-1.9,3.2-3.9,3.2-4.1C3.1-4.5,3.2-3.8,3.2-4.1"/></g><g id="g168" transform="translate(100.1265,61.3262)"><path id="path170" d="M3.2-4.1c0.2-0.6,0.5-1.4,0.5-2c0-1.2-0.8,0.2-0.9,0.4 C2.6-5.1,1.6-3,3.2-4.1"/></g><g id="g172" transform="translate(131.9565,78.3438)"><path id="path174" d="M3.2-4.1c-3,0.3-4.4,3.7-3.6,6.3c0.3,0.9,1.3,2.9,2.5,2.7 C2.7,4.8,4.9,2.9,4,2.2C3.8,2,1.1-0.4,2.9-0.5C4-0.5,3.4,1.7,5,1.4C7.5,0.9,5.3-4.3,3.2-4.1C2.6-4,3.8-4.2,3.2-4.1"/></g><g id="g176" transform="translate(118.2476,119.4512)"><path id="path178" d="M3.2-4.1c2.4,0,2.9-3.8,2.1-5.4c-1.6-2.9-5.2-1.3-6.7,0.7 c-0.8,1.1-0.3,2.7,1.3,2.1C0.8-7,1.2-9,2.4-8.5c1.8,0.7-1.2,2-1.4,2.3C-0.2-4.7,2.3-4.2,3.2-4.1C3.4-4.1,3-4.1,3.2-4.1"/></g><g id="g180" transform="translate(109.189,116.8594)"><path id="path182" d="M3.2-4.1C1.2-4-0.1-2.5-1-1c-0.4,0.7,0.8,2,1.5,2.1 C1.6,1.3,2.3,0.2,3-0.4c0.9-0.8,2-0.5,2.8,0.2c0.5,0.4,2.3,1,2.1-0.2C7.8-3,5.3-3.8,3.2-4.1C2.5-4.1,3.3-4.1,3.2-4.1"/></g><g id="g184" transform="translate(96.605,125.3574)"><path id="path186" d="M3.2-4.1C0.9-3.4,0-1.9-0.6,0.4C-1.6,3.7,2.8,3,2.8,0 c0-1.3,2.8,1.5,3.5-0.5C6.8-1.7,6.6-3,5.6-3.7C5.4-3.9,3.1-4.5,3.2-4.1C2.8-4,3.2-4.1,3.2-4.1"/></g><g id="g188" transform="translate(75.5366,122.293)"><path id="path190" d="M3.2-4.1C2.1-4,1-4.9-0.1-5C-1-5.1-1.9-4.7-2.7-4.4 c-1.7,0.7,0.4,4.1,1.3,4.7c0.5,0.3,1.8,0.5,2.2-0.1C1.4-0.5,0.4-1.4,0-2C-1-3.9,4.4-1.2,3.2-4.1C2.9-4.1,3.3-3.9,3.2-4.1"/></g><g id="g192" transform="translate(101.9331,125.1973)"><path id="path194" d="M3.2-4.1C2.7-1.6,6-1.4,5.5-3C5.2-3.6,5.7-5,6.6-4.8 c1,0.3,0.6,2.1,2.1,2c2.4-0.1-0.1-3.5-1.1-3.9C5.9-7.3,2.7-6.5,3.2-4.1C3.2-3.9,3.1-4.7,3.2-4.1"/></g><g id="g196" transform="translate(91.978,124.998)"><path id="path198" d="M3.2-4.1c1.9-0.2,2.2-1.7,0.5-2.7C2.3-7.5-0.7-5-0.9-3.7 c-0.2,1,1.6,3.1,2.6,2.2c0.7-0.7-0.2-1,0.3-1.7C2-3.3,3-4.7,3.2-4.1C3.5-4.1,3.2-4.1,3.2-4.1"/></g><g id="g200" transform="translate(61.9409,120.7871)"><path id="path202" d="M3.2-4.1C2.6-4.3,2-4.3,1.8-4.9c-0.2-0.7-0.7-1.5-1.6-1 c-1.5,1-3.1,2.3-0.7,3.3c0.6,0.3,0.6,0.8,1.1,1.2c0.9,0.7,1.7-0.2,2.3-0.7C3.5-2.6,4.4-2.9,4-3.7C4-3.9,3.3-4.4,3.2-4.1 C2.9-4.2,3.2-4.1,3.2-4.1"/></g><g id="g204" transform="translate(64.9917,125.7598)"><path id="path206" d="M3.2-4.1c1,0,0.6,1.3,1.7,1.4c1.3,0.1,3-1.2,1.5-2.4 C6-5.5,3.5-7.1,3.2-6.8C2.7-6.3,1.7-3.7,3.2-4.1C3.7-4.1,2.9-4,3.2-4.1"/></g><g id="g208" transform="translate(55.771,117.6367)"><path id="path210" d="M3.2-4.1c0,2,1.7,0.6,2.4-0.2c0.3-0.4,0.2-0.8,0.8-1 C6.7-5.4,7.8-5.5,8-5.8c0.7-0.8-1.9-1.8-2.4-1.6C4.5-6.9,3.1-5.4,3.2-4.1C3.2-4,3.2-4.4,3.2-4.1"/></g><g id="g212" transform="translate(76.2612,124.6094)"><path id="path214" d="M3.2-4.1c-3.5-0.1-1.6,5,0.5,3.2C4-1.3,6-1.5,5.6-2.3 C5.2-3.3,4.1-3.8,3.2-4.1C2.6-4.1,3.4-4,3.2-4.1"/></g><g id="g216" transform="translate(134.7065,90.3828)"><path id="path218" d="M3.2-4.1C1.7-3.6-0.5-1.8,1.9-0.4C3.7,0.7,5.3-3,3.2-4.1 C2.6-3.9,3.3-4,3.2-4.1"/></g><g id="g220" transform="translate(111.9077,121.623)"><path id="path222" d="M3.2-4.1C0.9-4.6,0.1-3.3,1.6-1.5C2.3-0.7,3.6-1.2,4-2 c0.2-0.4,0.5-1.5,0.2-1.9C4.1-4,3.2-4.3,3.2-4.1C3.1-4.1,3.2-4.1,3.2-4.1"/></g></g></g></g></g></g></switch></svg>